<mxfile host="app.diagrams.net" agent="Mozilla/5.0 (X11; Linux x86_64; rv:133.0) Gecko/20100101 Firefox/133.0" version="26.2.12">
  <diagram name="Page-1" id="pQYi7541R-ThFD2XaqdE">
    <mxGraphModel dx="1353" dy="705" grid="1" gridSize="10" guides="1" tooltips="1" connect="1" arrows="1" fold="1" page="1" pageScale="1" pageWidth="827" pageHeight="1169" math="0" shadow="0">
      <root>
        <mxCell id="0" />
        <mxCell id="1" parent="0" />
        <mxCell id="D3YJrhSKcQz66NcbfEvd-2" value="Stattgefundene Aktivität erfassen" style="ellipse;whiteSpace=wrap;html=1;" parent="1" vertex="1">
          <mxGeometry x="166" y="210" width="140" height="70" as="geometry" />
        </mxCell>
        <mxCell id="D3YJrhSKcQz66NcbfEvd-4" value="Ausstehende Aktivität erstellen" style="ellipse;whiteSpace=wrap;html=1;" parent="1" vertex="1">
          <mxGeometry x="186" y="520" width="140" height="70" as="geometry" />
        </mxCell>
        <mxCell id="D3YJrhSKcQz66NcbfEvd-5" value="Aktivitäten einsehen" style="ellipse;whiteSpace=wrap;html=1;" parent="1" vertex="1">
          <mxGeometry x="186" y="430" width="140" height="70" as="geometry" />
        </mxCell>
        <mxCell id="D3YJrhSKcQz66NcbfEvd-8" value="Ausstehende Aktivität als stattgefunden markieren" style="ellipse;whiteSpace=wrap;html=1;" parent="1" vertex="1">
          <mxGeometry x="402" y="370" width="140" height="70" as="geometry" />
        </mxCell>
        <mxCell id="D3YJrhSKcQz66NcbfEvd-9" value="Ausstehende Aktivität als nicht stattgefunden markieren" style="ellipse;whiteSpace=wrap;html=1;" parent="1" vertex="1">
          <mxGeometry x="406" y="470" width="140" height="70" as="geometry" />
        </mxCell>
        <mxCell id="D3YJrhSKcQz66NcbfEvd-16" value="Erkannte Gewohnheit bestätigen" style="ellipse;whiteSpace=wrap;html=1;" parent="1" vertex="1">
          <mxGeometry x="308" y="850" width="140" height="70" as="geometry" />
        </mxCell>
        <mxCell id="D3YJrhSKcQz66NcbfEvd-17" value="Anzugewöhnende Gewohnheit ersetllen" style="ellipse;whiteSpace=wrap;html=1;" parent="1" vertex="1">
          <mxGeometry x="336" y="630" width="140" height="70" as="geometry" />
        </mxCell>
        <mxCell id="D3YJrhSKcQz66NcbfEvd-18" value="Gewohnheit als abzugewöhnen markieren" style="ellipse;whiteSpace=wrap;html=1;" parent="1" vertex="1">
          <mxGeometry x="508" y="670" width="140" height="70" as="geometry" />
        </mxCell>
        <mxCell id="D3YJrhSKcQz66NcbfEvd-19" value="Gewohnheiten einsehen" style="ellipse;whiteSpace=wrap;html=1;" parent="1" vertex="1">
          <mxGeometry x="266" y="725" width="140" height="70" as="geometry" />
        </mxCell>
        <mxCell id="D3YJrhSKcQz66NcbfEvd-21" value="&amp;lt;&amp;lt;extend&amp;gt;&amp;gt;" style="html=1;verticalAlign=bottom;labelBackgroundColor=none;endArrow=open;endFill=0;dashed=1;rounded=0;" parent="1" source="D3YJrhSKcQz66NcbfEvd-8" target="D3YJrhSKcQz66NcbfEvd-5" edge="1">
          <mxGeometry x="0.1648" y="-13" width="160" relative="1" as="geometry">
            <mxPoint x="316" y="430" as="sourcePoint" />
            <mxPoint x="358" y="410" as="targetPoint" />
            <mxPoint as="offset" />
          </mxGeometry>
        </mxCell>
        <mxCell id="D3YJrhSKcQz66NcbfEvd-22" value="&amp;lt;&amp;lt;extend&amp;gt;&amp;gt;" style="html=1;verticalAlign=bottom;labelBackgroundColor=none;endArrow=open;endFill=0;dashed=1;rounded=0;" parent="1" source="D3YJrhSKcQz66NcbfEvd-9" target="D3YJrhSKcQz66NcbfEvd-5" edge="1">
          <mxGeometry x="0.0751" y="26" width="160" relative="1" as="geometry">
            <mxPoint x="316" y="660" as="sourcePoint" />
            <mxPoint x="338" y="530" as="targetPoint" />
            <mxPoint x="-1" as="offset" />
          </mxGeometry>
        </mxCell>
        <mxCell id="D3YJrhSKcQz66NcbfEvd-24" value="&amp;lt;&amp;lt;extend&amp;gt;&amp;gt;" style="html=1;verticalAlign=bottom;labelBackgroundColor=none;endArrow=open;endFill=0;dashed=1;rounded=0;" parent="1" source="D3YJrhSKcQz66NcbfEvd-18" target="D3YJrhSKcQz66NcbfEvd-19" edge="1">
          <mxGeometry x="-0.1168" y="20" width="160" relative="1" as="geometry">
            <mxPoint x="488" y="790" as="sourcePoint" />
            <mxPoint x="716" y="860" as="targetPoint" />
            <mxPoint as="offset" />
          </mxGeometry>
        </mxCell>
        <mxCell id="D3YJrhSKcQz66NcbfEvd-26" value="" style="endArrow=none;html=1;rounded=0;" parent="1" source="D3YJrhSKcQz66NcbfEvd-43" target="D3YJrhSKcQz66NcbfEvd-16" edge="1">
          <mxGeometry width="50" height="50" relative="1" as="geometry">
            <mxPoint x="124" y="780" as="sourcePoint" />
            <mxPoint x="174" y="840" as="targetPoint" />
          </mxGeometry>
        </mxCell>
        <mxCell id="D3YJrhSKcQz66NcbfEvd-28" value="" style="endArrow=none;html=1;rounded=0;" parent="1" source="D3YJrhSKcQz66NcbfEvd-43" target="D3YJrhSKcQz66NcbfEvd-4" edge="1">
          <mxGeometry width="50" height="50" relative="1" as="geometry">
            <mxPoint x="124" y="720" as="sourcePoint" />
            <mxPoint x="316" y="890" as="targetPoint" />
          </mxGeometry>
        </mxCell>
        <mxCell id="D3YJrhSKcQz66NcbfEvd-29" value="" style="endArrow=none;html=1;rounded=0;" parent="1" source="D3YJrhSKcQz66NcbfEvd-43" target="D3YJrhSKcQz66NcbfEvd-5" edge="1">
          <mxGeometry width="50" height="50" relative="1" as="geometry">
            <mxPoint x="114" y="680" as="sourcePoint" />
            <mxPoint x="226" y="505" as="targetPoint" />
          </mxGeometry>
        </mxCell>
        <mxCell id="D3YJrhSKcQz66NcbfEvd-30" value="" style="endArrow=none;html=1;rounded=0;" parent="1" source="D3YJrhSKcQz66NcbfEvd-43" target="D3YJrhSKcQz66NcbfEvd-2" edge="1">
          <mxGeometry width="50" height="50" relative="1" as="geometry">
            <mxPoint x="84" y="680" as="sourcePoint" />
            <mxPoint x="236" y="350" as="targetPoint" />
          </mxGeometry>
        </mxCell>
        <mxCell id="D3YJrhSKcQz66NcbfEvd-32" value="Aktivität bearbeiten" style="ellipse;whiteSpace=wrap;html=1;" parent="1" vertex="1">
          <mxGeometry x="628" y="420" width="140" height="70" as="geometry" />
        </mxCell>
        <mxCell id="D3YJrhSKcQz66NcbfEvd-34" value="&amp;lt;&amp;lt;extend&amp;gt;&amp;gt;" style="html=1;verticalAlign=bottom;labelBackgroundColor=none;endArrow=open;endFill=0;dashed=1;rounded=0;" parent="1" source="D3YJrhSKcQz66NcbfEvd-8" target="D3YJrhSKcQz66NcbfEvd-32" edge="1">
          <mxGeometry x="0.0336" y="16" width="160" relative="1" as="geometry">
            <mxPoint x="726" y="470" as="sourcePoint" />
            <mxPoint x="886" y="470" as="targetPoint" />
            <mxPoint x="-1" as="offset" />
          </mxGeometry>
        </mxCell>
        <mxCell id="D3YJrhSKcQz66NcbfEvd-37" value="&amp;lt;&amp;lt;extend&amp;gt;&amp;gt;" style="html=1;verticalAlign=bottom;labelBackgroundColor=none;endArrow=open;endFill=0;dashed=1;rounded=0;" parent="1" source="D3YJrhSKcQz66NcbfEvd-9" target="D3YJrhSKcQz66NcbfEvd-32" edge="1">
          <mxGeometry x="-0.0933" y="-25" width="160" relative="1" as="geometry">
            <mxPoint x="506" y="670" as="sourcePoint" />
            <mxPoint x="666" y="670" as="targetPoint" />
            <mxPoint y="-1" as="offset" />
          </mxGeometry>
        </mxCell>
        <mxCell id="D3YJrhSKcQz66NcbfEvd-39" value="&lt;div&gt;Aktivität löschen&lt;br&gt;&lt;/div&gt;" style="ellipse;whiteSpace=wrap;html=1;" parent="1" vertex="1">
          <mxGeometry x="256" y="310" width="140" height="70" as="geometry" />
        </mxCell>
        <mxCell id="D3YJrhSKcQz66NcbfEvd-40" value="&amp;lt;&amp;lt;extend&amp;gt;&amp;gt;" style="html=1;verticalAlign=bottom;labelBackgroundColor=none;endArrow=open;endFill=0;dashed=1;rounded=0;" parent="1" source="D3YJrhSKcQz66NcbfEvd-39" target="D3YJrhSKcQz66NcbfEvd-5" edge="1">
          <mxGeometry x="0.6864" y="-26" width="160" relative="1" as="geometry">
            <mxPoint x="666" y="310" as="sourcePoint" />
            <mxPoint x="238" y="390" as="targetPoint" />
            <mxPoint as="offset" />
          </mxGeometry>
        </mxCell>
        <mxCell id="D3YJrhSKcQz66NcbfEvd-41" value="Gewohnheit als abgewöhnt markieren" style="ellipse;whiteSpace=wrap;html=1;" parent="1" vertex="1">
          <mxGeometry x="508" y="790" width="140" height="70" as="geometry" />
        </mxCell>
        <mxCell id="D3YJrhSKcQz66NcbfEvd-42" value="&amp;lt;&amp;lt;extend&amp;gt;&amp;gt;" style="html=1;verticalAlign=bottom;labelBackgroundColor=none;endArrow=open;endFill=0;dashed=1;rounded=0;" parent="1" source="D3YJrhSKcQz66NcbfEvd-41" target="D3YJrhSKcQz66NcbfEvd-19" edge="1">
          <mxGeometry x="0.2243" y="22" width="160" relative="1" as="geometry">
            <mxPoint x="318" y="800" as="sourcePoint" />
            <mxPoint x="396" y="930" as="targetPoint" />
            <mxPoint as="offset" />
          </mxGeometry>
        </mxCell>
        <mxCell id="D3YJrhSKcQz66NcbfEvd-46" value="" style="group;strokeColor=none;" parent="1" vertex="1" connectable="0">
          <mxGeometry x="20" y="540" width="60" height="120" as="geometry" />
        </mxCell>
        <mxCell id="D3YJrhSKcQz66NcbfEvd-1" value="Benutzer" style="shape=umlActor;verticalLabelPosition=bottom;verticalAlign=top;html=1;" parent="D3YJrhSKcQz66NcbfEvd-46" vertex="1">
          <mxGeometry x="15" y="30" width="30" height="60" as="geometry" />
        </mxCell>
        <mxCell id="D3YJrhSKcQz66NcbfEvd-43" value="" style="rounded=1;whiteSpace=wrap;html=1;rotation=90;fillColor=none;strokeColor=none;" parent="D3YJrhSKcQz66NcbfEvd-46" vertex="1">
          <mxGeometry x="-30" y="30" width="120" height="60" as="geometry" />
        </mxCell>
        <mxCell id="D3YJrhSKcQz66NcbfEvd-47" value="" style="endArrow=none;html=1;rounded=0;" parent="1" source="D3YJrhSKcQz66NcbfEvd-43" target="D3YJrhSKcQz66NcbfEvd-19" edge="1">
          <mxGeometry width="50" height="50" relative="1" as="geometry">
            <mxPoint x="134" y="790" as="sourcePoint" />
            <mxPoint x="310" y="830" as="targetPoint" />
          </mxGeometry>
        </mxCell>
        <mxCell id="0PRpBJpaK6CI54JheIvI-1" value="" style="endArrow=none;html=1;rounded=0;" edge="1" parent="1" source="D3YJrhSKcQz66NcbfEvd-43" target="D3YJrhSKcQz66NcbfEvd-17">
          <mxGeometry width="50" height="50" relative="1" as="geometry">
            <mxPoint x="134" y="615" as="sourcePoint" />
            <mxPoint x="304" y="615" as="targetPoint" />
          </mxGeometry>
        </mxCell>
        <mxCell id="0PRpBJpaK6CI54JheIvI-2" value="trabit" style="shape=umlFrame;whiteSpace=wrap;html=1;pointerEvents=0;" vertex="1" parent="1">
          <mxGeometry x="96" y="160" width="680" height="790" as="geometry" />
        </mxCell>
      </root>
    </mxGraphModel>
  </diagram>
</mxfile>
